<svg width="109" height="64" viewBox="0 0 109 64" fill="none" xmlns="http://www.w3.org/2000/svg">
<path d="M0 19.5654H8.07841V11.9043H5.15145L0 19.5654Z" fill="#0041A7"/>
<path d="M97.2917 53.8637C97.2917 57.3996 93.7793 60.2284 89.3303 60.2284H22.5956C18.2637 60.2284 14.6343 57.3996 14.6343 53.8637V10.0184C14.6343 6.4825 18.1467 3.65377 22.5956 3.65377H89.3303C93.1939 3.65377 96.4721 5.89319 97.1746 8.83978H100.921C100.219 3.8895 95.3013 0 89.3303 0H22.5956C16.1563 0 11.0049 4.47882 11.0049 10.0184V53.8637C11.0049 59.4033 16.2734 63.8821 22.5956 63.8821H89.3303C95.7697 63.8821 100.921 59.4033 100.921 53.8637V22.3941H97.1746V53.8637H97.2917Z" fill="#0041A7"/>
<path d="M68.2565 11.905C65.6807 11.905 63.9246 12.4943 62.8709 13.6729C61.9342 14.8516 61.3489 16.6195 61.3489 18.9768V29.3488C61.3489 30.056 61.4659 30.6453 61.583 31.1168C61.8172 32.4133 62.4026 33.3562 63.3392 34.0634C64.1587 34.7705 65.4466 35.1241 67.0857 35.1241H82.8913C83.945 35.1241 84.5304 35.4777 84.6475 36.1849C84.7645 36.4206 84.7645 36.6564 84.7645 36.8921V42.4317C84.7645 43.1389 84.6475 43.7282 84.4133 43.9639C84.1791 44.1996 83.5938 44.4354 82.8913 44.4354H61.4659L58.539 48.6785V11.905H17.5615V19.5661H28.0986V52.0965H37.1136V19.5661H46.8311L49.7581 15.323V52.2144H86.8719C89.4477 52.2144 91.2038 51.625 92.1405 50.4464C93.0771 49.2678 93.6625 47.4998 93.6625 45.1425V33.0026C93.6625 32.4133 93.5454 31.8239 93.5454 31.3525C93.3113 30.056 92.7259 29.1131 91.7892 28.4059C90.8526 27.6987 89.6818 27.3451 88.0427 27.3451H71.8859C71.0664 27.3451 70.481 26.9915 70.3639 26.4022C70.3639 26.2843 70.3639 26.1665 70.3639 26.0486C70.3639 25.9308 70.3639 21.4519 70.3639 21.4519C70.3639 20.7448 70.481 20.2733 70.7151 19.9197C70.9493 19.684 71.3005 19.4483 72.003 19.4483H103.965L109.117 11.7871H68.2565V11.905Z" fill="#0041A7"/>
</svg>
